<mxfile host="Electron" modified="2023-11-04T16:34:39.938Z" agent="Mozilla/5.0 (Windows NT 10.0; Win64; x64) AppleWebKit/537.36 (KHTML, like Gecko) draw.io/22.0.3 Chrome/114.0.5735.289 Electron/25.8.4 Safari/537.36" etag="rnGXcT0zN1X8Jg2xJWxx" version="22.0.3" type="device">
  <diagram name="Page-1" id="e7e014a7-5840-1c2e-5031-d8a46d1fe8dd">
    <mxGraphModel dx="978" dy="571" grid="1" gridSize="10" guides="1" tooltips="1" connect="1" arrows="1" fold="1" page="1" pageScale="1" pageWidth="1169" pageHeight="826" background="none" math="0" shadow="0">
      <root>
        <mxCell id="0" />
        <mxCell id="1" parent="0" />
        <mxCell id="ZpAUis7mZ_SPWUMgS9Ey-42" value="Utilizador toma da medicação" style="shape=note2;boundedLbl=1;whiteSpace=wrap;html=1;size=25;verticalAlign=top;align=center;" parent="1" vertex="1">
          <mxGeometry x="90" y="100" width="120" height="80" as="geometry" />
        </mxCell>
        <mxCell id="ZpAUis7mZ_SPWUMgS9Ey-43" style="edgeStyle=orthogonalEdgeStyle;rounded=0;orthogonalLoop=1;jettySize=auto;html=1;entryX=0.206;entryY=0.611;entryDx=0;entryDy=0;entryPerimeter=0;dashed=1;endArrow=none;endFill=0;" parent="1" source="ZpAUis7mZ_SPWUMgS9Ey-42" target="5" edge="1">
          <mxGeometry relative="1" as="geometry" />
        </mxCell>
        <mxCell id="5" value="" style="ellipse;shape=startState;fillColor=#000000;strokeColor=#000000;" parent="1" vertex="1">
          <mxGeometry x="345" y="160" width="30" height="30" as="geometry" />
        </mxCell>
        <mxCell id="ZpAUis7mZ_SPWUMgS9Ey-53" style="edgeStyle=orthogonalEdgeStyle;rounded=0;orthogonalLoop=1;jettySize=auto;html=1;entryX=0.5;entryY=0;entryDx=0;entryDy=0;endArrow=open;endFill=0;" parent="1" source="ZpAUis7mZ_SPWUMgS9Ey-46" edge="1">
          <mxGeometry relative="1" as="geometry">
            <mxPoint x="360" y="310" as="targetPoint" />
          </mxGeometry>
        </mxCell>
        <mxCell id="ZpAUis7mZ_SPWUMgS9Ey-46" value="Utilizador faz o processo de toma de medicação na aplicação" style="rounded=1;whiteSpace=wrap;html=1;arcSize=40;fontColor=#000000;fillColor=#ffffc0;strokeColor=#000000;" parent="1" vertex="1">
          <mxGeometry x="300" y="210" width="120" height="60" as="geometry" />
        </mxCell>
        <mxCell id="ZpAUis7mZ_SPWUMgS9Ey-49" style="edgeStyle=orthogonalEdgeStyle;rounded=0;orthogonalLoop=1;jettySize=auto;html=1;exitX=0.5;exitY=1;exitDx=0;exitDy=0;entryX=0.5;entryY=0;entryDx=0;entryDy=0;endArrow=open;endFill=0;" parent="1" source="5" target="ZpAUis7mZ_SPWUMgS9Ey-46" edge="1">
          <mxGeometry relative="1" as="geometry" />
        </mxCell>
        <mxCell id="ZpAUis7mZ_SPWUMgS9Ey-58" style="edgeStyle=orthogonalEdgeStyle;rounded=0;orthogonalLoop=1;jettySize=auto;html=1;entryX=0.5;entryY=0;entryDx=0;entryDy=0;endArrow=open;endFill=0;" parent="1" source="ZpAUis7mZ_SPWUMgS9Ey-56" target="ZpAUis7mZ_SPWUMgS9Ey-57" edge="1">
          <mxGeometry relative="1" as="geometry" />
        </mxCell>
        <mxCell id="ZpAUis7mZ_SPWUMgS9Ey-56" value="Utilizador tira uma fotografia dos medicamentos antes da ingestão&amp;nbsp;" style="rounded=1;whiteSpace=wrap;html=1;arcSize=40;fontColor=#000000;fillColor=#ffffc0;strokeColor=#000000;" parent="1" vertex="1">
          <mxGeometry x="255" y="430" width="210" height="60" as="geometry" />
        </mxCell>
        <mxCell id="ZpAUis7mZ_SPWUMgS9Ey-57" value="Fotografia carregada para a aplicação" style="rounded=1;whiteSpace=wrap;html=1;arcSize=40;fontColor=#000000;fillColor=#ffffc0;strokeColor=#000000;" parent="1" vertex="1">
          <mxGeometry x="300" y="520" width="120" height="40" as="geometry" />
        </mxCell>
        <mxCell id="ZpAUis7mZ_SPWUMgS9Ey-60" value="" style="ellipse;html=1;shape=endState;fillColor=#000000;strokeColor=#000000;" parent="1" vertex="1">
          <mxGeometry x="595" y="670" width="30" height="30" as="geometry" />
        </mxCell>
        <mxCell id="op-E55uMPkgR9GvU6pdv-6" value="Horario de ingestão &lt;br&gt;esta correto?" style="rhombus;whiteSpace=wrap;html=1;fontColor=#000000;fillColor=#ffffc0;strokeColor=#000000;" vertex="1" parent="1">
          <mxGeometry x="276.25" y="310" width="167.5" height="80" as="geometry" />
        </mxCell>
        <mxCell id="op-E55uMPkgR9GvU6pdv-7" value="NÃO" style="edgeStyle=orthogonalEdgeStyle;html=1;align=left;verticalAlign=bottom;endArrow=open;endSize=8;strokeColor=#000000;rounded=0;" edge="1" source="op-E55uMPkgR9GvU6pdv-6" parent="1">
          <mxGeometry x="-1" relative="1" as="geometry">
            <mxPoint x="540" y="350" as="targetPoint" />
            <Array as="points">
              <mxPoint x="500" y="350" />
            </Array>
            <mxPoint as="offset" />
          </mxGeometry>
        </mxCell>
        <mxCell id="op-E55uMPkgR9GvU6pdv-10" value="Processo cancelado" style="rounded=1;whiteSpace=wrap;html=1;arcSize=40;fontColor=#000000;fillColor=#ffffc0;strokeColor=#000000;" vertex="1" parent="1">
          <mxGeometry x="540" y="335" width="140" height="30" as="geometry" />
        </mxCell>
        <mxCell id="op-E55uMPkgR9GvU6pdv-12" value="SIM" style="edgeStyle=orthogonalEdgeStyle;html=1;align=left;verticalAlign=bottom;endArrow=open;endSize=8;strokeColor=#000000;rounded=0;entryX=0.5;entryY=0;entryDx=0;entryDy=0;" edge="1" parent="1" target="ZpAUis7mZ_SPWUMgS9Ey-56">
          <mxGeometry x="-0.6" y="10" relative="1" as="geometry">
            <mxPoint x="456" y="390" as="targetPoint" />
            <mxPoint x="360" y="390" as="sourcePoint" />
            <Array as="points">
              <mxPoint x="360" y="400" />
              <mxPoint x="360" y="400" />
            </Array>
            <mxPoint as="offset" />
          </mxGeometry>
        </mxCell>
        <mxCell id="op-E55uMPkgR9GvU6pdv-14" style="edgeStyle=orthogonalEdgeStyle;rounded=0;orthogonalLoop=1;jettySize=auto;html=1;endArrow=open;endFill=0;" edge="1" parent="1" source="op-E55uMPkgR9GvU6pdv-13" target="ZpAUis7mZ_SPWUMgS9Ey-60">
          <mxGeometry relative="1" as="geometry" />
        </mxCell>
        <mxCell id="op-E55uMPkgR9GvU6pdv-13" value="" style="html=1;points=[];perimeter=orthogonalPerimeter;fillColor=strokeColor;rotation=90;" vertex="1" parent="1">
          <mxGeometry x="607.5" y="580" width="5" height="80" as="geometry" />
        </mxCell>
        <mxCell id="op-E55uMPkgR9GvU6pdv-15" style="edgeStyle=orthogonalEdgeStyle;rounded=0;orthogonalLoop=1;jettySize=auto;html=1;entryX=0.414;entryY=0.757;entryDx=0;entryDy=0;entryPerimeter=0;endArrow=open;endFill=0;" edge="1" parent="1" source="ZpAUis7mZ_SPWUMgS9Ey-57" target="op-E55uMPkgR9GvU6pdv-13">
          <mxGeometry relative="1" as="geometry" />
        </mxCell>
        <mxCell id="op-E55uMPkgR9GvU6pdv-16" style="edgeStyle=orthogonalEdgeStyle;rounded=0;orthogonalLoop=1;jettySize=auto;html=1;exitX=0.75;exitY=1;exitDx=0;exitDy=0;entryX=-0.043;entryY=0.05;entryDx=0;entryDy=0;entryPerimeter=0;endArrow=open;endFill=0;" edge="1" parent="1" source="op-E55uMPkgR9GvU6pdv-10" target="op-E55uMPkgR9GvU6pdv-13">
          <mxGeometry relative="1" as="geometry" />
        </mxCell>
      </root>
    </mxGraphModel>
  </diagram>
</mxfile>
